<svg xmlns="http://www.w3.org/2000/svg" viewBox="-130 -1660 5720 1940" width="1144" height="388" role="img" aria-label="Steno">
  <title>Steno paper</title>
  <path d="M655.0 31Q570.0 31 509.0 10.5Q448.0 -10 409.5 -30.5Q371.0 -51 354.0 -51Q336.0 -51 324.5 -38.5Q313.0 -26 303.0 -9.0Q293.0 8 281.5 20.5Q270.0 33 252.0 33Q233.0 33 221.0 21.5Q209.0 10 204.0 -16L133.0 -338Q129.0 -358 137.5 -372.5Q146.0 -387 166.0 -394Q188.0 -401 204.0 -392.5Q220.0 -384 232.0 -361Q287.0 -251 352.5 -185.0Q418.0 -119 491.0 -90.0Q564.0 -61 639.0 -61Q746.0 -61 807.0 -118.0Q868.0 -175 869.0 -269Q869.0 -328 841.5 -377.5Q814.0 -427 737.5 -473.5Q661.0 -520 513.0 -569Q363.0 -619 272.0 -683.5Q181.0 -748 140.0 -832.5Q99.0 -917 99.0 -1027Q99.0 -1146 155.0 -1236.0Q211.0 -1326 313.0 -1376.0Q415.0 -1426 550.0 -1426Q642.0 -1426 701.5 -1406.5Q761.0 -1387 798.0 -1367.0Q835.0 -1347 859.0 -1347Q881.0 -1347 891.0 -1367.0Q901.0 -1387 912.5 -1407.5Q924.0 -1428 950.0 -1428Q970.0 -1428 982.5 -1415.5Q995.0 -1403 1005.0 -1370L1101.0 -1043Q1108.0 -1020 1099.5 -1001.0Q1091.0 -982 1071.0 -976Q1049.0 -969 1032.5 -977.0Q1016.0 -985 1005.0 -1007Q945.0 -1129 875.0 -1201.0Q805.0 -1273 729.0 -1303.5Q653.0 -1334 575.0 -1334Q466.0 -1334 402.0 -1272.0Q338.0 -1210 338.0 -1109Q338.0 -1049 365.5 -997.5Q393.0 -946 468.0 -897.0Q543.0 -848 684.0 -796Q839.0 -740 930.0 -676.0Q1021.0 -612 1060.5 -533.0Q1100.0 -454 1099.0 -353Q1099.0 -247 1046.5 -160.0Q994.0 -73 895.5 -21.0Q797.0 31 655.0 31Z M1332.0 -853 1282.0 -867Q1257.0 -874 1247.5 -884.0Q1238.0 -894 1238.0 -907Q1238.0 -925 1250.5 -934.0Q1263.0 -943 1283.0 -943H1346.0Q1371.0 -943 1387.0 -951.5Q1403.0 -960 1418.0 -983L1513.0 -1133Q1531.0 -1157 1548.0 -1168.5Q1565.0 -1180 1582.0 -1180Q1601.0 -1180 1611.5 -1168.0Q1622.0 -1156 1622.0 -1134V-943H1843.0Q1865.0 -943 1877.0 -934.5Q1889.0 -926 1889.0 -909Q1889.0 -886 1865.5 -870.0Q1842.0 -854 1790.0 -854H1622.0V-266Q1622.0 -196 1650.0 -159.5Q1678.0 -123 1729.0 -123Q1765.0 -123 1785.5 -136.5Q1806.0 -150 1818.0 -167.5Q1830.0 -185 1841.0 -198.5Q1852.0 -212 1868.0 -213Q1882.0 -213 1889.5 -204.0Q1897.0 -195 1897.0 -175Q1897.0 -124 1863.0 -80.0Q1829.0 -36 1769.5 -8.5Q1710.0 19 1634.0 19Q1515.0 19 1446.0 -42.0Q1377.0 -103 1377.0 -226V-795Q1377.0 -820 1366.5 -832.5Q1356.0 -845 1332.0 -853Z M2929.0 -588Q2929.0 -538 2900.0 -511.5Q2871.0 -485 2817.0 -485H2253.0Q2265.0 -330 2344.0 -246Q2437.0 -146 2589.0 -146Q2683.0 -146 2752.5 -186.0Q2822.0 -226 2856.0 -295Q2871.0 -313 2880.5 -319.5Q2890.0 -326 2901.0 -326Q2915.0 -326 2922.0 -313.0Q2929.0 -300 2928.0 -282Q2923.0 -199 2868.5 -129.0Q2814.0 -59 2721.5 -17.5Q2629.0 24 2511.0 24Q2368.0 24 2258.5 -35.0Q2149.0 -94 2087.5 -201.0Q2026.0 -308 2026.0 -452Q2026.0 -601 2085.5 -716.5Q2145.0 -832 2255.0 -898.5Q2365.0 -965 2518.0 -965Q2646.0 -965 2738.0 -917.0Q2830.0 -869 2879.5 -784.0Q2929.0 -699 2929.0 -588ZM2630.0 -556Q2680.0 -556 2680.0 -600Q2680.0 -733 2627.0 -805.0Q2574.0 -877 2485.0 -877Q2416.0 -877 2363.0 -836.5Q2310.0 -796 2281.0 -721Q2253.0 -650 2251.0 -556Z M3451.0 -901V-790Q3553.0 -878 3630.0 -919Q3717.0 -965 3797.0 -965Q3919.0 -965 3986.0 -884.0Q4053.0 -803 4068.0 -667L4126.0 -152Q4130.0 -121 4138.5 -106.5Q4147.0 -92 4167.0 -86L4206.0 -76Q4224.0 -70 4232.5 -60.5Q4241.0 -51 4241.0 -37Q4241.0 -20 4229.5 -10.0Q4218.0 0 4192.0 0H3817.0Q3766.0 0 3766.0 -39Q3766.0 -64 3797.0 -76L3839.0 -86Q3860.0 -92 3870.5 -107.0Q3881.0 -122 3878.0 -152L3823.0 -630Q3812.0 -723 3774.5 -770.0Q3737.0 -817 3666.0 -817Q3621.0 -817 3570.5 -792.5Q3520.0 -768 3463.0 -719L3451.0 -709V-149Q3451.0 -120 3460.0 -106.0Q3469.0 -92 3488.0 -86L3529.0 -76Q3560.0 -64 3560.0 -39Q3560.0 0 3509.0 0H3138.0Q3112.0 0 3100.0 -10.0Q3088.0 -20 3088.0 -37Q3088.0 -51 3096.5 -60.5Q3105.0 -70 3123.0 -76L3167.0 -86Q3186.0 -92 3195.5 -105.5Q3205.0 -119 3205.0 -148V-746Q3205.0 -770 3197.0 -780.5Q3189.0 -791 3172.0 -794L3112.0 -797Q3094.0 -800 3086.5 -808.5Q3079.0 -817 3079.0 -829Q3079.0 -844 3088.0 -853.5Q3097.0 -863 3122.0 -871L3298.0 -935Q3332.0 -947 3353.5 -953.0Q3375.0 -959 3393.0 -959Q3422.0 -959 3436.5 -943.0Q3451.0 -927 3451.0 -901Z M4852.0 -965Q5003.0 -965 5117.5 -902.0Q5232.0 -839 5296.5 -727.0Q5361.0 -615 5361.0 -469Q5361.0 -328 5295.0 -216.5Q5229.0 -105 5113.0 -40.5Q4997.0 24 4844.0 24Q4693.0 24 4579.0 -39.5Q4465.0 -103 4400.5 -215.0Q4336.0 -327 4336.0 -472Q4336.0 -615 4401.5 -726.0Q4467.0 -837 4583.0 -901.0Q4699.0 -965 4852.0 -965ZM4923.0 -71Q4999.0 -82 5045.5 -136.5Q5092.0 -191 5106.5 -284.5Q5121.0 -378 5098.0 -508Q5076.0 -637 5029.0 -722.0Q4982.0 -807 4916.5 -844.5Q4851.0 -882 4773.0 -870Q4698.0 -858 4651.0 -804.0Q4604.0 -750 4590.0 -656.5Q4576.0 -563 4598.0 -433Q4620.0 -304 4667.0 -219.0Q4714.0 -134 4779.5 -96.5Q4845.0 -59 4923.0 -71Z" fill="#F6F1E7"/>
</svg>
