<svg xmlns="http://www.w3.org/2000/svg" viewBox="0 0 1024 1024" width="1024" height="1024" role="img" aria-label="Steno">
  <title>Steno</title>
  <defs>
    <linearGradient id="sg" x1="0" y1="0" x2="1" y2="1">
      <stop offset="0" stop-color="#A6794C"/>
      <stop offset="0.55" stop-color="#86602F"/>
      <stop offset="1" stop-color="#5e431f"/>
    </linearGradient>
  </defs>
  <rect x="0" y="0" width="1024" height="1024" rx="180" fill="#F6F1E7"/>
  <rect x="78" y="150" width="14" height="724" rx="7" fill="#A6794C" opacity="0.85"/>
  <g transform="translate(174.40 903.48) scale(0.56126)"><path d="M655.0 31Q570.0 31 509.0 10.5Q448.0 -10 409.5 -30.5Q371.0 -51 354.0 -51Q336.0 -51 324.5 -38.5Q313.0 -26 303.0 -9.0Q293.0 8 281.5 20.5Q270.0 33 252.0 33Q233.0 33 221.0 21.5Q209.0 10 204.0 -16L133.0 -338Q129.0 -358 137.5 -372.5Q146.0 -387 166.0 -394Q188.0 -401 204.0 -392.5Q220.0 -384 232.0 -361Q287.0 -251 352.5 -185.0Q418.0 -119 491.0 -90.0Q564.0 -61 639.0 -61Q746.0 -61 807.0 -118.0Q868.0 -175 869.0 -269Q869.0 -328 841.5 -377.5Q814.0 -427 737.5 -473.5Q661.0 -520 513.0 -569Q363.0 -619 272.0 -683.5Q181.0 -748 140.0 -832.5Q99.0 -917 99.0 -1027Q99.0 -1146 155.0 -1236.0Q211.0 -1326 313.0 -1376.0Q415.0 -1426 550.0 -1426Q642.0 -1426 701.5 -1406.5Q761.0 -1387 798.0 -1367.0Q835.0 -1347 859.0 -1347Q881.0 -1347 891.0 -1367.0Q901.0 -1387 912.5 -1407.5Q924.0 -1428 950.0 -1428Q970.0 -1428 982.5 -1415.5Q995.0 -1403 1005.0 -1370L1101.0 -1043Q1108.0 -1020 1099.5 -1001.0Q1091.0 -982 1071.0 -976Q1049.0 -969 1032.5 -977.0Q1016.0 -985 1005.0 -1007Q945.0 -1129 875.0 -1201.0Q805.0 -1273 729.0 -1303.5Q653.0 -1334 575.0 -1334Q466.0 -1334 402.0 -1272.0Q338.0 -1210 338.0 -1109Q338.0 -1049 365.5 -997.5Q393.0 -946 468.0 -897.0Q543.0 -848 684.0 -796Q839.0 -740 930.0 -676.0Q1021.0 -612 1060.5 -533.0Q1100.0 -454 1099.0 -353Q1099.0 -247 1046.5 -160.0Q994.0 -73 895.5 -21.0Q797.0 31 655.0 31Z" fill="url(#sg)"/></g>
</svg>
